<?xml version="1.0" encoding="utf-8"?>
<svg xmlns="http://www.w3.org/2000/svg" xmlns:xlink="http://www.w3.org/1999/xlink" style="margin: auto; background: none; display: block; shape-rendering: auto;" width="221px" height="221px" viewBox="0 0 100 100" preserveAspectRatio="xMidYMid">
<g transform="rotate(0 50 50)">
  <rect x="48" y="24" rx="0" ry="0" width="4" height="10" fill="#6a6a6a">
    <animate attributeName="opacity" values="1;0" keyTimes="0;1" dur="1.0638297872340425s" begin="-0.9973404255319148s" repeatCount="indefinite"></animate>
  </rect>
</g><g transform="rotate(22.5 50 50)">
  <rect x="48" y="24" rx="0" ry="0" width="4" height="10" fill="#6a6a6a">
    <animate attributeName="opacity" values="1;0" keyTimes="0;1" dur="1.0638297872340425s" begin="-0.9308510638297872s" repeatCount="indefinite"></animate>
  </rect>
</g><g transform="rotate(45 50 50)">
  <rect x="48" y="24" rx="0" ry="0" width="4" height="10" fill="#6a6a6a">
    <animate attributeName="opacity" values="1;0" keyTimes="0;1" dur="1.0638297872340425s" begin="-0.8643617021276595s" repeatCount="indefinite"></animate>
  </rect>
</g><g transform="rotate(67.5 50 50)">
  <rect x="48" y="24" rx="0" ry="0" width="4" height="10" fill="#6a6a6a">
    <animate attributeName="opacity" values="1;0" keyTimes="0;1" dur="1.0638297872340425s" begin="-0.7978723404255319s" repeatCount="indefinite"></animate>
  </rect>
</g><g transform="rotate(90 50 50)">
  <rect x="48" y="24" rx="0" ry="0" width="4" height="10" fill="#6a6a6a">
    <animate attributeName="opacity" values="1;0" keyTimes="0;1" dur="1.0638297872340425s" begin="-0.7313829787234042s" repeatCount="indefinite"></animate>
  </rect>
</g><g transform="rotate(112.5 50 50)">
  <rect x="48" y="24" rx="0" ry="0" width="4" height="10" fill="#6a6a6a">
    <animate attributeName="opacity" values="1;0" keyTimes="0;1" dur="1.0638297872340425s" begin="-0.6648936170212766s" repeatCount="indefinite"></animate>
  </rect>
</g><g transform="rotate(135 50 50)">
  <rect x="48" y="24" rx="0" ry="0" width="4" height="10" fill="#6a6a6a">
    <animate attributeName="opacity" values="1;0" keyTimes="0;1" dur="1.0638297872340425s" begin="-0.5984042553191489s" repeatCount="indefinite"></animate>
  </rect>
</g><g transform="rotate(157.5 50 50)">
  <rect x="48" y="24" rx="0" ry="0" width="4" height="10" fill="#6a6a6a">
    <animate attributeName="opacity" values="1;0" keyTimes="0;1" dur="1.0638297872340425s" begin="-0.5319148936170213s" repeatCount="indefinite"></animate>
  </rect>
</g><g transform="rotate(180 50 50)">
  <rect x="48" y="24" rx="0" ry="0" width="4" height="10" fill="#6a6a6a">
    <animate attributeName="opacity" values="1;0" keyTimes="0;1" dur="1.0638297872340425s" begin="-0.4654255319148936s" repeatCount="indefinite"></animate>
  </rect>
</g><g transform="rotate(202.5 50 50)">
  <rect x="48" y="24" rx="0" ry="0" width="4" height="10" fill="#6a6a6a">
    <animate attributeName="opacity" values="1;0" keyTimes="0;1" dur="1.0638297872340425s" begin="-0.39893617021276595s" repeatCount="indefinite"></animate>
  </rect>
</g><g transform="rotate(225 50 50)">
  <rect x="48" y="24" rx="0" ry="0" width="4" height="10" fill="#6a6a6a">
    <animate attributeName="opacity" values="1;0" keyTimes="0;1" dur="1.0638297872340425s" begin="-0.3324468085106383s" repeatCount="indefinite"></animate>
  </rect>
</g><g transform="rotate(247.5 50 50)">
  <rect x="48" y="24" rx="0" ry="0" width="4" height="10" fill="#6a6a6a">
    <animate attributeName="opacity" values="1;0" keyTimes="0;1" dur="1.0638297872340425s" begin="-0.26595744680851063s" repeatCount="indefinite"></animate>
  </rect>
</g><g transform="rotate(270 50 50)">
  <rect x="48" y="24" rx="0" ry="0" width="4" height="10" fill="#6a6a6a">
    <animate attributeName="opacity" values="1;0" keyTimes="0;1" dur="1.0638297872340425s" begin="-0.19946808510638298s" repeatCount="indefinite"></animate>
  </rect>
</g><g transform="rotate(292.5 50 50)">
  <rect x="48" y="24" rx="0" ry="0" width="4" height="10" fill="#6a6a6a">
    <animate attributeName="opacity" values="1;0" keyTimes="0;1" dur="1.0638297872340425s" begin="-0.13297872340425532s" repeatCount="indefinite"></animate>
  </rect>
</g><g transform="rotate(315 50 50)">
  <rect x="48" y="24" rx="0" ry="0" width="4" height="10" fill="#6a6a6a">
    <animate attributeName="opacity" values="1;0" keyTimes="0;1" dur="1.0638297872340425s" begin="-0.06648936170212766s" repeatCount="indefinite"></animate>
  </rect>
</g><g transform="rotate(337.5 50 50)">
  <rect x="48" y="24" rx="0" ry="0" width="4" height="10" fill="#6a6a6a">
    <animate attributeName="opacity" values="1;0" keyTimes="0;1" dur="1.0638297872340425s" begin="0s" repeatCount="indefinite"></animate>
  </rect>
</g>
<!-- [ldio] generated by https://loading.io/ --></svg>